<mxfile host="app.diagrams.net" modified="2024-06-11T08:44:39.355Z" agent="Mozilla/5.0 (Windows NT 10.0; Win64; x64) AppleWebKit/537.36 (KHTML, like Gecko) Chrome/125.0.0.0 Safari/537.36" etag="PAxad3UT39ShXecGMuqB" version="24.3.1" type="github" pages="7">
  <diagram name="第 1 页" id="FvPf_Lo6pXyg8kImJkot">
    <mxGraphModel dx="1434" dy="738" grid="1" gridSize="10" guides="1" tooltips="1" connect="1" arrows="1" fold="1" page="1" pageScale="1" pageWidth="827" pageHeight="1169" math="0" shadow="0">
      <root>
        <mxCell id="0" />
        <mxCell id="1" parent="0" />
        <mxCell id="_Dmf7pdYffFVBTm7HEq9-91" value="Boss Group" style="whiteSpace=wrap;strokeWidth=2;" parent="1" vertex="1">
          <mxGeometry x="185" y="40" width="94" height="34" as="geometry" />
        </mxCell>
        <mxCell id="_Dmf7pdYffFVBTm7HEq9-92" value="NIO线程" style="ellipse;aspect=fixed;strokeWidth=2;whiteSpace=wrap;" parent="1" vertex="1">
          <mxGeometry x="195" y="143" width="73" height="73" as="geometry" />
        </mxCell>
        <mxCell id="_Dmf7pdYffFVBTm7HEq9-93" value="Worker Group" style="whiteSpace=wrap;strokeWidth=2;" parent="1" vertex="1">
          <mxGeometry x="174" y="266" width="115" height="34" as="geometry" />
        </mxCell>
        <mxCell id="_Dmf7pdYffFVBTm7HEq9-94" value="ChannelHandler" style="whiteSpace=wrap;strokeWidth=2;" parent="1" vertex="1">
          <mxGeometry x="20" y="350" width="130" height="34" as="geometry" />
        </mxCell>
        <mxCell id="_Dmf7pdYffFVBTm7HEq9-95" value="写操作" style="whiteSpace=wrap;strokeWidth=2;" parent="1" vertex="1">
          <mxGeometry x="200" y="350" width="64" height="34" as="geometry" />
        </mxCell>
        <mxCell id="_Dmf7pdYffFVBTm7HEq9-96" value="读操作" style="whiteSpace=wrap;strokeWidth=2;" parent="1" vertex="1">
          <mxGeometry x="314" y="350" width="65" height="34" as="geometry" />
        </mxCell>
        <mxCell id="_Dmf7pdYffFVBTm7HEq9-97" value="User Code" style="whiteSpace=wrap;strokeWidth=2;" parent="1" vertex="1">
          <mxGeometry x="492" y="40" width="88" height="34" as="geometry" />
        </mxCell>
        <mxCell id="_Dmf7pdYffFVBTm7HEq9-98" value="EventLoop 处理I/O事件和任务" style="whiteSpace=wrap;strokeWidth=2;" parent="1" vertex="1">
          <mxGeometry x="420" y="163" width="231" height="34" as="geometry" />
        </mxCell>
        <mxCell id="_Dmf7pdYffFVBTm7HEq9-99" value="Channel" style="whiteSpace=wrap;strokeWidth=2;" parent="1" vertex="1">
          <mxGeometry x="424" y="266" width="73" height="34" as="geometry" />
        </mxCell>
        <mxCell id="_Dmf7pdYffFVBTm7HEq9-100" value="Future/Promise" style="whiteSpace=wrap;strokeWidth=2;" parent="1" vertex="1">
          <mxGeometry x="547" y="266" width="127" height="34" as="geometry" />
        </mxCell>
        <mxCell id="_Dmf7pdYffFVBTm7HEq9-101" value="Unsafe" style="whiteSpace=wrap;strokeWidth=2;" parent="1" vertex="1">
          <mxGeometry x="429" y="350" width="64" height="34" as="geometry" />
        </mxCell>
        <mxCell id="_Dmf7pdYffFVBTm7HEq9-102" value="ByteBuf" style="whiteSpace=wrap;strokeWidth=2;" parent="1" vertex="1">
          <mxGeometry x="425" y="434" width="72" height="34" as="geometry" />
        </mxCell>
        <mxCell id="_Dmf7pdYffFVBTm7HEq9-103" value="Boss Group" style="whiteSpace=wrap;strokeWidth=2;" parent="1" vertex="1">
          <mxGeometry x="764" y="40" width="94" height="34" as="geometry" />
        </mxCell>
        <mxCell id="_Dmf7pdYffFVBTm7HEq9-104" value="ServerBootstrap" style="whiteSpace=wrap;strokeWidth=2;" parent="1" vertex="1">
          <mxGeometry x="746" y="163" width="129" height="34" as="geometry" />
        </mxCell>
        <mxCell id="_Dmf7pdYffFVBTm7HEq9-105" value="Child Channel" style="whiteSpace=wrap;strokeWidth=2;" parent="1" vertex="1">
          <mxGeometry x="754" y="266" width="114" height="34" as="geometry" />
        </mxCell>
        <mxCell id="_Dmf7pdYffFVBTm7HEq9-106" value="Worker Group" style="whiteSpace=wrap;strokeWidth=2;" parent="1" vertex="1">
          <mxGeometry x="753" y="350" width="115" height="34" as="geometry" />
        </mxCell>
        <mxCell id="_Dmf7pdYffFVBTm7HEq9-107" value="ChannelInitializer 初始化ChannelPipeline" style="whiteSpace=wrap;strokeWidth=2;" parent="1" vertex="1">
          <mxGeometry x="656" y="434" width="309" height="34" as="geometry" />
        </mxCell>
        <mxCell id="_Dmf7pdYffFVBTm7HEq9-108" value="ChannelPipeline 包含多个ChannelHandler" style="whiteSpace=wrap;strokeWidth=2;" parent="1" vertex="1">
          <mxGeometry x="654" y="518" width="313" height="34" as="geometry" />
        </mxCell>
        <mxCell id="_Dmf7pdYffFVBTm7HEq9-109" value="ChannelHandler ServerCodec, ServerHandler" style="whiteSpace=wrap;strokeWidth=2;" parent="1" vertex="1">
          <mxGeometry x="643" y="602" width="336" height="34" as="geometry" />
        </mxCell>
        <mxCell id="_Dmf7pdYffFVBTm7HEq9-110" value="Accepts connections" style="curved=1;startArrow=none;endArrow=block;exitX=0.49601063829787234;exitY=1;entryX=0.5017123287671232;entryY=0;rounded=0;" parent="1" source="_Dmf7pdYffFVBTm7HEq9-91" target="_Dmf7pdYffFVBTm7HEq9-92" edge="1">
          <mxGeometry relative="1" as="geometry">
            <Array as="points" />
          </mxGeometry>
        </mxCell>
        <mxCell id="_Dmf7pdYffFVBTm7HEq9-111" value="" style="curved=1;startArrow=none;endArrow=block;exitX=0.5017123287671232;exitY=1.0061001712328768;entryX=0.5010869565217392;entryY=0.013097426470588236;rounded=0;" parent="1" source="_Dmf7pdYffFVBTm7HEq9-92" target="_Dmf7pdYffFVBTm7HEq9-93" edge="1">
          <mxGeometry relative="1" as="geometry">
            <Array as="points" />
          </mxGeometry>
        </mxCell>
        <mxCell id="_Dmf7pdYffFVBTm7HEq9-112" value="" style="curved=1;startArrow=none;endArrow=block;exitX=0.0014945652173913044;exitY=0.9965133982232748;entryX=0.4985576923076923;entryY=0.013097426470588236;rounded=0;" parent="1" source="_Dmf7pdYffFVBTm7HEq9-93" target="_Dmf7pdYffFVBTm7HEq9-94" edge="1">
          <mxGeometry relative="1" as="geometry">
            <Array as="points">
              <mxPoint x="85" y="325" />
            </Array>
          </mxGeometry>
        </mxCell>
        <mxCell id="_Dmf7pdYffFVBTm7HEq9-113" value="" style="curved=1;startArrow=none;endArrow=block;exitX=0.5010869565217392;exitY=1.0130974264705883;entryX=0.494140625;entryY=0.013097426470588236;rounded=0;" parent="1" source="_Dmf7pdYffFVBTm7HEq9-93" target="_Dmf7pdYffFVBTm7HEq9-95" edge="1">
          <mxGeometry relative="1" as="geometry">
            <Array as="points" />
          </mxGeometry>
        </mxCell>
        <mxCell id="_Dmf7pdYffFVBTm7HEq9-114" value="" style="curved=1;startArrow=none;endArrow=block;exitX=0.9040890269151137;exitY=1.0130974264705883;entryX=0.49423076923076925;entryY=0.013097426470588236;rounded=0;" parent="1" source="_Dmf7pdYffFVBTm7HEq9-93" target="_Dmf7pdYffFVBTm7HEq9-96" edge="1">
          <mxGeometry relative="1" as="geometry">
            <Array as="points">
              <mxPoint x="346" y="325" />
            </Array>
          </mxGeometry>
        </mxCell>
        <mxCell id="_Dmf7pdYffFVBTm7HEq9-115" value="触发事件" style="curved=1;startArrow=none;endArrow=block;exitX=0.4946511008522727;exitY=1;entryX=0.5001268262987013;entryY=-0.00815716911764706;rounded=0;" parent="1" source="_Dmf7pdYffFVBTm7HEq9-97" target="_Dmf7pdYffFVBTm7HEq9-98" edge="1">
          <mxGeometry relative="1" as="geometry">
            <Array as="points" />
          </mxGeometry>
        </mxCell>
        <mxCell id="_Dmf7pdYffFVBTm7HEq9-116" value="" style="curved=1;startArrow=none;endArrow=block;exitX=0.41076580443340766;exitY=0.9918428308823529;entryX=0.5011237157534246;entryY=0.013097426470588236;rounded=0;" parent="1" source="_Dmf7pdYffFVBTm7HEq9-98" target="_Dmf7pdYffFVBTm7HEq9-99" edge="1">
          <mxGeometry relative="1" as="geometry">
            <Array as="points">
              <mxPoint x="461" y="241" />
            </Array>
          </mxGeometry>
        </mxCell>
        <mxCell id="_Dmf7pdYffFVBTm7HEq9-117" value="" style="curved=1;startArrow=none;endArrow=block;exitX=0.5894878481639952;exitY=0.9918428308823529;entryX=0.4998154527559055;entryY=0.013097426470588236;rounded=0;" parent="1" source="_Dmf7pdYffFVBTm7HEq9-98" target="_Dmf7pdYffFVBTm7HEq9-100" edge="1">
          <mxGeometry relative="1" as="geometry">
            <Array as="points">
              <mxPoint x="610" y="241" />
            </Array>
          </mxGeometry>
        </mxCell>
        <mxCell id="_Dmf7pdYffFVBTm7HEq9-118" value="" style="curved=1;startArrow=none;endArrow=block;exitX=0.5011237157534246;exitY=1.0130974264705883;entryX=0.49346923828125;entryY=0.013097426470588236;rounded=0;" parent="1" source="_Dmf7pdYffFVBTm7HEq9-99" target="_Dmf7pdYffFVBTm7HEq9-101" edge="1">
          <mxGeometry relative="1" as="geometry">
            <Array as="points" />
          </mxGeometry>
        </mxCell>
        <mxCell id="_Dmf7pdYffFVBTm7HEq9-119" value="" style="curved=1;startArrow=none;endArrow=block;exitX=0.49346923828125;exitY=1.0130974264705883;entryX=0.4941948784722222;entryY=0.013097426470588236;rounded=0;" parent="1" source="_Dmf7pdYffFVBTm7HEq9-101" target="_Dmf7pdYffFVBTm7HEq9-102" edge="1">
          <mxGeometry relative="1" as="geometry">
            <Array as="points" />
          </mxGeometry>
        </mxCell>
        <mxCell id="_Dmf7pdYffFVBTm7HEq9-120" value="" style="curved=1;startArrow=none;endArrow=block;exitX=0.4981715425531915;exitY=1;entryX=0.5025436046511628;entryY=-0.00815716911764706;rounded=0;" parent="1" source="_Dmf7pdYffFVBTm7HEq9-103" target="_Dmf7pdYffFVBTm7HEq9-104" edge="1">
          <mxGeometry relative="1" as="geometry">
            <Array as="points" />
          </mxGeometry>
        </mxCell>
        <mxCell id="_Dmf7pdYffFVBTm7HEq9-121" value="" style="curved=1;startArrow=none;endArrow=block;exitX=0.5025436046511628;exitY=0.9918428308823529;entryX=0.4984923245614035;entryY=0.013097426470588236;rounded=0;" parent="1" source="_Dmf7pdYffFVBTm7HEq9-104" target="_Dmf7pdYffFVBTm7HEq9-105" edge="1">
          <mxGeometry relative="1" as="geometry">
            <Array as="points" />
          </mxGeometry>
        </mxCell>
        <mxCell id="_Dmf7pdYffFVBTm7HEq9-122" value="" style="curved=1;startArrow=none;endArrow=block;exitX=0.4984923245614035;exitY=1.0130974264705883;entryX=0.5028532608695652;entryY=0.013097426470588236;rounded=0;" parent="1" source="_Dmf7pdYffFVBTm7HEq9-105" target="_Dmf7pdYffFVBTm7HEq9-106" edge="1">
          <mxGeometry relative="1" as="geometry">
            <Array as="points" />
          </mxGeometry>
        </mxCell>
        <mxCell id="_Dmf7pdYffFVBTm7HEq9-123" value="" style="curved=1;startArrow=none;endArrow=block;exitX=0.5028532608695652;exitY=1.0130974264705883;entryX=0.5010618932038835;entryY=0.013097426470588236;rounded=0;" parent="1" source="_Dmf7pdYffFVBTm7HEq9-106" target="_Dmf7pdYffFVBTm7HEq9-107" edge="1">
          <mxGeometry relative="1" as="geometry">
            <Array as="points" />
          </mxGeometry>
        </mxCell>
        <mxCell id="_Dmf7pdYffFVBTm7HEq9-124" value="" style="curved=1;startArrow=none;endArrow=block;exitX=0.5010618932038835;exitY=1.0130974264705883;entryX=0.501048322683706;entryY=0.013097426470588236;rounded=0;" parent="1" source="_Dmf7pdYffFVBTm7HEq9-107" target="_Dmf7pdYffFVBTm7HEq9-108" edge="1">
          <mxGeometry relative="1" as="geometry">
            <Array as="points" />
          </mxGeometry>
        </mxCell>
        <mxCell id="_Dmf7pdYffFVBTm7HEq9-125" value="" style="curved=1;startArrow=none;endArrow=block;exitX=0.501048322683706;exitY=1.0130974264705883;entryX=0.49948846726190477;entryY=0.013097426470588236;rounded=0;" parent="1" source="_Dmf7pdYffFVBTm7HEq9-108" target="_Dmf7pdYffFVBTm7HEq9-109" edge="1">
          <mxGeometry relative="1" as="geometry">
            <Array as="points" />
          </mxGeometry>
        </mxCell>
      </root>
    </mxGraphModel>
  </diagram>
  <diagram id="xB-Wq5KInaV8dcZDmXL-" name="第 2 页">
    <mxGraphModel dx="1434" dy="738" grid="1" gridSize="10" guides="1" tooltips="1" connect="1" arrows="1" fold="1" page="1" pageScale="1" pageWidth="827" pageHeight="1169" math="0" shadow="0">
      <root>
        <mxCell id="0" />
        <mxCell id="1" parent="0" />
        <mxCell id="rnhxc6F_1mIID7zvDg4K-1" value="Channel Event Loop" style="whiteSpace=wrap;strokeWidth=2;verticalAlign=top;" vertex="1" parent="1">
          <mxGeometry x="44" y="238" width="712" height="84" as="geometry" />
        </mxCell>
        <mxCell id="rnhxc6F_1mIID7zvDg4K-2" value="Channel 1" style="whiteSpace=wrap;strokeWidth=2;" vertex="1" parent="1">
          <mxGeometry x="79" y="263" width="86" height="34" as="geometry" />
        </mxCell>
        <mxCell id="rnhxc6F_1mIID7zvDg4K-3" value="Channel 2" style="whiteSpace=wrap;strokeWidth=2;" vertex="1" parent="1">
          <mxGeometry x="264" y="263" width="86" height="34" as="geometry" />
        </mxCell>
        <mxCell id="rnhxc6F_1mIID7zvDg4K-4" value="Channel 3" style="whiteSpace=wrap;strokeWidth=2;" vertex="1" parent="1">
          <mxGeometry x="449" y="263" width="86" height="34" as="geometry" />
        </mxCell>
        <mxCell id="rnhxc6F_1mIID7zvDg4K-5" value="Channel N" style="whiteSpace=wrap;strokeWidth=2;" vertex="1" parent="1">
          <mxGeometry x="634" y="263" width="88" height="34" as="geometry" />
        </mxCell>
        <mxCell id="rnhxc6F_1mIID7zvDg4K-6" value="I/O Threads" style="whiteSpace=wrap;strokeWidth=2;verticalAlign=top;" vertex="1" parent="1">
          <mxGeometry x="20" y="20" width="761" height="168" as="geometry" />
        </mxCell>
        <mxCell id="rnhxc6F_1mIID7zvDg4K-7" value="Worker Thread 1" style="whiteSpace=wrap;strokeWidth=2;" vertex="1" parent="1">
          <mxGeometry x="55" y="129" width="135" height="34" as="geometry" />
        </mxCell>
        <mxCell id="rnhxc6F_1mIID7zvDg4K-8" value="Boss Thread" style="whiteSpace=wrap;strokeWidth=2;" vertex="1" parent="1">
          <mxGeometry x="349" y="45" width="101" height="34" as="geometry" />
        </mxCell>
        <mxCell id="rnhxc6F_1mIID7zvDg4K-9" value="Worker Thread 2" style="whiteSpace=wrap;strokeWidth=2;" vertex="1" parent="1">
          <mxGeometry x="240" y="129" width="135" height="34" as="geometry" />
        </mxCell>
        <mxCell id="rnhxc6F_1mIID7zvDg4K-10" value="Worker Thread 3" style="whiteSpace=wrap;strokeWidth=2;" vertex="1" parent="1">
          <mxGeometry x="425" y="129" width="135" height="34" as="geometry" />
        </mxCell>
        <mxCell id="rnhxc6F_1mIID7zvDg4K-11" value="Worker Thread N" style="whiteSpace=wrap;strokeWidth=2;" vertex="1" parent="1">
          <mxGeometry x="609" y="129" width="137" height="34" as="geometry" />
        </mxCell>
        <mxCell id="rnhxc6F_1mIID7zvDg4K-12" value="" style="curved=1;startArrow=none;endArrow=block;exitX=0.002745977722772277;exitY=0.7239895535381171;entryX=0.4991319444444444;entryY=0;rounded=0;" edge="1" parent="1" source="rnhxc6F_1mIID7zvDg4K-8" target="rnhxc6F_1mIID7zvDg4K-7">
          <mxGeometry relative="1" as="geometry">
            <Array as="points">
              <mxPoint x="122" y="104" />
            </Array>
          </mxGeometry>
        </mxCell>
        <mxCell id="rnhxc6F_1mIID7zvDg4K-13" value="" style="curved=1;startArrow=none;endArrow=block;exitX=0.13008125589344627;exitY=1;entryX=0.4973958333333333;entryY=0;rounded=0;" edge="1" parent="1" source="rnhxc6F_1mIID7zvDg4K-8" target="rnhxc6F_1mIID7zvDg4K-9">
          <mxGeometry relative="1" as="geometry">
            <Array as="points">
              <mxPoint x="307" y="104" />
            </Array>
          </mxGeometry>
        </mxCell>
        <mxCell id="rnhxc6F_1mIID7zvDg4K-14" value="" style="curved=1;startArrow=none;endArrow=block;exitX=0.8705375559877419;exitY=1;entryX=0.4956597222222222;entryY=0;rounded=0;" edge="1" parent="1" source="rnhxc6F_1mIID7zvDg4K-8" target="rnhxc6F_1mIID7zvDg4K-10">
          <mxGeometry relative="1" as="geometry">
            <Array as="points">
              <mxPoint x="492" y="104" />
            </Array>
          </mxGeometry>
        </mxCell>
        <mxCell id="rnhxc6F_1mIID7zvDg4K-15" value="" style="curved=1;startArrow=none;endArrow=block;exitX=0.9978728341584159;exitY=0.7232595153764914;entryX=0.5006272810218978;entryY=0;rounded=0;" edge="1" parent="1" source="rnhxc6F_1mIID7zvDg4K-8" target="rnhxc6F_1mIID7zvDg4K-11">
          <mxGeometry relative="1" as="geometry">
            <Array as="points">
              <mxPoint x="678" y="104" />
            </Array>
          </mxGeometry>
        </mxCell>
        <mxCell id="rnhxc6F_1mIID7zvDg4K-16" value="" style="curved=1;startArrow=none;endArrow=block;exitX=0.4991319444444444;exitY=1;entryX=0.5044513081395349;entryY=0;rounded=0;" edge="1" parent="1" source="rnhxc6F_1mIID7zvDg4K-7" target="rnhxc6F_1mIID7zvDg4K-2">
          <mxGeometry relative="1" as="geometry">
            <Array as="points" />
          </mxGeometry>
        </mxCell>
        <mxCell id="rnhxc6F_1mIID7zvDg4K-17" value="" style="curved=1;startArrow=none;endArrow=block;exitX=0.4973958333333333;exitY=1;entryX=0.5017260174418605;entryY=0;rounded=0;" edge="1" parent="1" source="rnhxc6F_1mIID7zvDg4K-9" target="rnhxc6F_1mIID7zvDg4K-3">
          <mxGeometry relative="1" as="geometry">
            <Array as="points" />
          </mxGeometry>
        </mxCell>
        <mxCell id="rnhxc6F_1mIID7zvDg4K-18" value="" style="curved=1;startArrow=none;endArrow=block;exitX=0.4956597222222222;exitY=1;entryX=0.49900072674418605;entryY=0;rounded=0;" edge="1" parent="1" source="rnhxc6F_1mIID7zvDg4K-10" target="rnhxc6F_1mIID7zvDg4K-4">
          <mxGeometry relative="1" as="geometry">
            <Array as="points" />
          </mxGeometry>
        </mxCell>
        <mxCell id="rnhxc6F_1mIID7zvDg4K-19" value="" style="curved=1;startArrow=none;endArrow=block;exitX=0.5006272810218978;exitY=1;entryX=0.4952947443181818;entryY=0;rounded=0;" edge="1" parent="1" source="rnhxc6F_1mIID7zvDg4K-11" target="rnhxc6F_1mIID7zvDg4K-5">
          <mxGeometry relative="1" as="geometry">
            <Array as="points" />
          </mxGeometry>
        </mxCell>
      </root>
    </mxGraphModel>
  </diagram>
  <diagram id="t0R8JR2IA-d7_66EO0is" name="第 3 页">
    <mxGraphModel dx="1434" dy="738" grid="1" gridSize="10" guides="1" tooltips="1" connect="1" arrows="1" fold="1" page="1" pageScale="1" pageWidth="827" pageHeight="1169" math="0" shadow="0">
      <root>
        <mxCell id="0" />
        <mxCell id="1" parent="0" />
        <mxCell id="CbtKt9YDIjNu7s4jK52n-1" value="Boss Group" style="whiteSpace=wrap;strokeWidth=2;verticalAlign=top;" vertex="1" parent="1">
          <mxGeometry x="44" y="20" width="603" height="84" as="geometry" />
        </mxCell>
        <mxCell id="CbtKt9YDIjNu7s4jK52n-2" value="Boss 1" style="whiteSpace=wrap;strokeWidth=2;" vertex="1" parent="1">
          <mxGeometry x="79" y="45" width="59" height="34" as="geometry" />
        </mxCell>
        <mxCell id="CbtKt9YDIjNu7s4jK52n-3" value="Boss 2" style="whiteSpace=wrap;strokeWidth=2;" vertex="1" parent="1">
          <mxGeometry x="237" y="45" width="59" height="34" as="geometry" />
        </mxCell>
        <mxCell id="CbtKt9YDIjNu7s4jK52n-4" value="Boss 3" style="whiteSpace=wrap;strokeWidth=2;" vertex="1" parent="1">
          <mxGeometry x="394" y="45" width="59" height="34" as="geometry" />
        </mxCell>
        <mxCell id="CbtKt9YDIjNu7s4jK52n-5" value="Boss N" style="whiteSpace=wrap;strokeWidth=2;" vertex="1" parent="1">
          <mxGeometry x="552" y="45" width="61" height="34" as="geometry" />
        </mxCell>
        <mxCell id="CbtKt9YDIjNu7s4jK52n-6" value="Event Loop Group" style="whiteSpace=wrap;strokeWidth=2;verticalAlign=top;" vertex="1" parent="1">
          <mxGeometry x="20" y="154" width="652" height="84" as="geometry" />
        </mxCell>
        <mxCell id="CbtKt9YDIjNu7s4jK52n-7" value="Event Loop 1" style="whiteSpace=wrap;strokeWidth=2;" vertex="1" parent="1">
          <mxGeometry x="55" y="179" width="107" height="34" as="geometry" />
        </mxCell>
        <mxCell id="CbtKt9YDIjNu7s4jK52n-8" value="Event Loop 2" style="whiteSpace=wrap;strokeWidth=2;" vertex="1" parent="1">
          <mxGeometry x="212" y="179" width="107" height="34" as="geometry" />
        </mxCell>
        <mxCell id="CbtKt9YDIjNu7s4jK52n-9" value="Event Loop 3" style="whiteSpace=wrap;strokeWidth=2;" vertex="1" parent="1">
          <mxGeometry x="370" y="179" width="107" height="34" as="geometry" />
        </mxCell>
        <mxCell id="CbtKt9YDIjNu7s4jK52n-10" value="Event Loop N" style="whiteSpace=wrap;strokeWidth=2;" vertex="1" parent="1">
          <mxGeometry x="527" y="179" width="109" height="34" as="geometry" />
        </mxCell>
        <mxCell id="CbtKt9YDIjNu7s4jK52n-11" value="Channel Pipeline" style="whiteSpace=wrap;strokeWidth=2;verticalAlign=top;" vertex="1" parent="1">
          <mxGeometry x="64" y="288" width="537" height="420" as="geometry" />
        </mxCell>
        <mxCell id="CbtKt9YDIjNu7s4jK52n-12" value="Handler 1" style="whiteSpace=wrap;strokeWidth=2;" vertex="1" parent="1">
          <mxGeometry x="303" y="397" width="84" height="34" as="geometry" />
        </mxCell>
        <mxCell id="CbtKt9YDIjNu7s4jK52n-13" value="Channel" style="rounded=1;absoluteArcSize=1;arcSize=14;whiteSpace=wrap;strokeWidth=2;" vertex="1" parent="1">
          <mxGeometry x="308" y="313" width="73" height="34" as="geometry" />
        </mxCell>
        <mxCell id="CbtKt9YDIjNu7s4jK52n-14" value="Handler 2" style="whiteSpace=wrap;strokeWidth=2;" vertex="1" parent="1">
          <mxGeometry x="303" y="481" width="84" height="34" as="geometry" />
        </mxCell>
        <mxCell id="CbtKt9YDIjNu7s4jK52n-15" value="Handler 3" style="whiteSpace=wrap;strokeWidth=2;" vertex="1" parent="1">
          <mxGeometry x="303" y="565" width="84" height="34" as="geometry" />
        </mxCell>
        <mxCell id="CbtKt9YDIjNu7s4jK52n-16" value="Handler N" style="whiteSpace=wrap;strokeWidth=2;" vertex="1" parent="1">
          <mxGeometry x="302" y="649" width="86" height="34" as="geometry" />
        </mxCell>
        <mxCell id="CbtKt9YDIjNu7s4jK52n-17" value="" style="curved=1;startArrow=none;endArrow=block;exitX=0.5051369863013698;exitY=1;entryX=0.49851190476190477;entryY=0;rounded=0;" edge="1" parent="1" source="CbtKt9YDIjNu7s4jK52n-13" target="CbtKt9YDIjNu7s4jK52n-12">
          <mxGeometry relative="1" as="geometry">
            <Array as="points" />
          </mxGeometry>
        </mxCell>
        <mxCell id="CbtKt9YDIjNu7s4jK52n-18" value="" style="curved=1;startArrow=none;endArrow=block;exitX=0.49851190476190477;exitY=1;entryX=0.49851190476190477;entryY=0;rounded=0;" edge="1" parent="1" source="CbtKt9YDIjNu7s4jK52n-12" target="CbtKt9YDIjNu7s4jK52n-14">
          <mxGeometry relative="1" as="geometry">
            <Array as="points" />
          </mxGeometry>
        </mxCell>
        <mxCell id="CbtKt9YDIjNu7s4jK52n-19" value="" style="curved=1;startArrow=none;endArrow=block;exitX=0.49851190476190477;exitY=1;entryX=0.49851190476190477;entryY=0;rounded=0;" edge="1" parent="1" source="CbtKt9YDIjNu7s4jK52n-14" target="CbtKt9YDIjNu7s4jK52n-15">
          <mxGeometry relative="1" as="geometry">
            <Array as="points" />
          </mxGeometry>
        </mxCell>
        <mxCell id="CbtKt9YDIjNu7s4jK52n-20" value="" style="curved=1;startArrow=none;endArrow=block;exitX=0.49851190476190477;exitY=1;entryX=0.498546511627907;entryY=0;rounded=0;" edge="1" parent="1" source="CbtKt9YDIjNu7s4jK52n-15" target="CbtKt9YDIjNu7s4jK52n-16">
          <mxGeometry relative="1" as="geometry">
            <Array as="points" />
          </mxGeometry>
        </mxCell>
        <mxCell id="CbtKt9YDIjNu7s4jK52n-21" value="" style="curved=1;startArrow=none;endArrow=block;exitX=0.5020443925233645;exitY=1;entryX=0.005618578767123288;entryY=0.30925845923919454;rounded=0;" edge="1" parent="1" source="CbtKt9YDIjNu7s4jK52n-7" target="CbtKt9YDIjNu7s4jK52n-13">
          <mxGeometry relative="1" as="geometry">
            <Array as="points">
              <mxPoint x="109" y="288" />
            </Array>
          </mxGeometry>
        </mxCell>
        <mxCell id="CbtKt9YDIjNu7s4jK52n-22" value="" style="curved=1;startArrow=none;endArrow=block;exitX=0.5061331775700935;exitY=1;entryX=0.06866642204827118;entryY=0;rounded=0;" edge="1" parent="1" source="CbtKt9YDIjNu7s4jK52n-8" target="CbtKt9YDIjNu7s4jK52n-13">
          <mxGeometry relative="1" as="geometry">
            <Array as="points">
              <mxPoint x="266" y="288" />
            </Array>
          </mxGeometry>
        </mxCell>
        <mxCell id="CbtKt9YDIjNu7s4jK52n-23" value="" style="curved=1;startArrow=none;endArrow=block;exitX=0.500876168224299;exitY=1;entryX=0.9416075505544685;entryY=0;rounded=0;" edge="1" parent="1" source="CbtKt9YDIjNu7s4jK52n-9" target="CbtKt9YDIjNu7s4jK52n-13">
          <mxGeometry relative="1" as="geometry">
            <Array as="points">
              <mxPoint x="424" y="288" />
            </Array>
          </mxGeometry>
        </mxCell>
        <mxCell id="CbtKt9YDIjNu7s4jK52n-24" value="" style="curved=1;startArrow=none;endArrow=block;exitX=0.5040854357798165;exitY=1;entryX=1.0046553938356164;entryY=0.30999389375127145;rounded=0;" edge="1" parent="1" source="CbtKt9YDIjNu7s4jK52n-10" target="CbtKt9YDIjNu7s4jK52n-13">
          <mxGeometry relative="1" as="geometry">
            <Array as="points">
              <mxPoint x="582" y="288" />
            </Array>
          </mxGeometry>
        </mxCell>
        <mxCell id="CbtKt9YDIjNu7s4jK52n-25" value="" style="curved=1;startArrow=none;endArrow=block;exitX=0.503707627118644;exitY=1;entryX=0.5020443925233645;entryY=0;rounded=0;" edge="1" parent="1" source="CbtKt9YDIjNu7s4jK52n-2" target="CbtKt9YDIjNu7s4jK52n-7">
          <mxGeometry relative="1" as="geometry">
            <Array as="points" />
          </mxGeometry>
        </mxCell>
        <mxCell id="CbtKt9YDIjNu7s4jK52n-26" value="" style="curved=1;startArrow=none;endArrow=block;exitX=0.4941737288135593;exitY=1;entryX=0.5061331775700935;entryY=0;rounded=0;" edge="1" parent="1" source="CbtKt9YDIjNu7s4jK52n-3" target="CbtKt9YDIjNu7s4jK52n-8">
          <mxGeometry relative="1" as="geometry">
            <Array as="points" />
          </mxGeometry>
        </mxCell>
        <mxCell id="CbtKt9YDIjNu7s4jK52n-27" value="" style="curved=1;startArrow=none;endArrow=block;exitX=0.5015889830508474;exitY=1;entryX=0.500876168224299;entryY=0;rounded=0;" edge="1" parent="1" source="CbtKt9YDIjNu7s4jK52n-4" target="CbtKt9YDIjNu7s4jK52n-9">
          <mxGeometry relative="1" as="geometry">
            <Array as="points" />
          </mxGeometry>
        </mxCell>
        <mxCell id="CbtKt9YDIjNu7s4jK52n-28" value="" style="curved=1;startArrow=none;endArrow=block;exitX=0.49090676229508196;exitY=1;entryX=0.5040854357798165;entryY=0;rounded=0;" edge="1" parent="1" source="CbtKt9YDIjNu7s4jK52n-5" target="CbtKt9YDIjNu7s4jK52n-10">
          <mxGeometry relative="1" as="geometry">
            <Array as="points" />
          </mxGeometry>
        </mxCell>
      </root>
    </mxGraphModel>
  </diagram>
  <diagram id="ZxfWWkmR-ibZHchpIfhj" name="第 4 页">
    <mxGraphModel dx="1434" dy="738" grid="1" gridSize="10" guides="1" tooltips="1" connect="1" arrows="1" fold="1" page="1" pageScale="1" pageWidth="827" pageHeight="1169" math="0" shadow="0">
      <root>
        <mxCell id="0" />
        <mxCell id="1" parent="0" />
        <mxCell id="x11ZHwA_qsf2qUsEq_QX-1" value="Netty Core" style="whiteSpace=wrap;strokeWidth=2;verticalAlign=top;" vertex="1" parent="1">
          <mxGeometry x="20" y="490" width="164" height="336" as="geometry" />
        </mxCell>
        <mxCell id="x11ZHwA_qsf2qUsEq_QX-2" value="Encoder" style="whiteSpace=wrap;strokeWidth=2;" vertex="1" parent="1">
          <mxGeometry x="65" y="515" width="73" height="34" as="geometry" />
        </mxCell>
        <mxCell id="x11ZHwA_qsf2qUsEq_QX-3" value="Decoder" style="whiteSpace=wrap;strokeWidth=2;" vertex="1" parent="1">
          <mxGeometry x="65" y="599" width="75" height="34" as="geometry" />
        </mxCell>
        <mxCell id="x11ZHwA_qsf2qUsEq_QX-4" value="Event Loop" style="whiteSpace=wrap;strokeWidth=2;" vertex="1" parent="1">
          <mxGeometry x="55" y="683" width="94" height="34" as="geometry" />
        </mxCell>
        <mxCell id="x11ZHwA_qsf2qUsEq_QX-5" value="Channel" style="whiteSpace=wrap;strokeWidth=2;" vertex="1" parent="1">
          <mxGeometry x="66" y="767" width="73" height="34" as="geometry" />
        </mxCell>
        <mxCell id="x11ZHwA_qsf2qUsEq_QX-6" value="User Logic" style="whiteSpace=wrap;strokeWidth=2;verticalAlign=top;" vertex="1" parent="1">
          <mxGeometry x="25" y="20" width="154" height="420" as="geometry" />
        </mxCell>
        <mxCell id="x11ZHwA_qsf2qUsEq_QX-7" value="Handler 1" style="whiteSpace=wrap;strokeWidth=2;" vertex="1" parent="1">
          <mxGeometry x="60" y="129" width="84" height="34" as="geometry" />
        </mxCell>
        <mxCell id="x11ZHwA_qsf2qUsEq_QX-8" value="Client" style="rounded=1;absoluteArcSize=1;arcSize=14;whiteSpace=wrap;strokeWidth=2;" vertex="1" parent="1">
          <mxGeometry x="73" y="45" width="58" height="34" as="geometry" />
        </mxCell>
        <mxCell id="x11ZHwA_qsf2qUsEq_QX-9" value="Handler 2" style="whiteSpace=wrap;strokeWidth=2;" vertex="1" parent="1">
          <mxGeometry x="60" y="213" width="84" height="34" as="geometry" />
        </mxCell>
        <mxCell id="x11ZHwA_qsf2qUsEq_QX-10" value="Handler 3" style="whiteSpace=wrap;strokeWidth=2;" vertex="1" parent="1">
          <mxGeometry x="60" y="297" width="84" height="34" as="geometry" />
        </mxCell>
        <mxCell id="x11ZHwA_qsf2qUsEq_QX-11" value="Server" style="rounded=1;absoluteArcSize=1;arcSize=14;whiteSpace=wrap;strokeWidth=2;" vertex="1" parent="1">
          <mxGeometry x="72" y="381" width="61" height="34" as="geometry" />
        </mxCell>
        <mxCell id="x11ZHwA_qsf2qUsEq_QX-12" value="" style="curved=1;startArrow=none;endArrow=block;exitX=0.5026939655172413;exitY=1;entryX=0.5018601190476191;entryY=0;rounded=0;" edge="1" parent="1" source="x11ZHwA_qsf2qUsEq_QX-8" target="x11ZHwA_qsf2qUsEq_QX-7">
          <mxGeometry relative="1" as="geometry">
            <Array as="points" />
          </mxGeometry>
        </mxCell>
        <mxCell id="x11ZHwA_qsf2qUsEq_QX-13" value="" style="curved=1;startArrow=none;endArrow=block;exitX=0.5018601190476191;exitY=1;entryX=0.5018601190476191;entryY=0;rounded=0;" edge="1" parent="1" source="x11ZHwA_qsf2qUsEq_QX-7" target="x11ZHwA_qsf2qUsEq_QX-9">
          <mxGeometry relative="1" as="geometry">
            <Array as="points" />
          </mxGeometry>
        </mxCell>
        <mxCell id="x11ZHwA_qsf2qUsEq_QX-14" value="" style="curved=1;startArrow=none;endArrow=block;exitX=0.5018601190476191;exitY=1;entryX=0.5018601190476191;entryY=0;rounded=0;" edge="1" parent="1" source="x11ZHwA_qsf2qUsEq_QX-9" target="x11ZHwA_qsf2qUsEq_QX-10">
          <mxGeometry relative="1" as="geometry">
            <Array as="points" />
          </mxGeometry>
        </mxCell>
        <mxCell id="x11ZHwA_qsf2qUsEq_QX-15" value="" style="curved=1;startArrow=none;endArrow=block;exitX=0.5018601190476191;exitY=1;entryX=0.49436475409836067;entryY=0;rounded=0;" edge="1" parent="1" source="x11ZHwA_qsf2qUsEq_QX-10" target="x11ZHwA_qsf2qUsEq_QX-11">
          <mxGeometry relative="1" as="geometry">
            <Array as="points" />
          </mxGeometry>
        </mxCell>
        <mxCell id="x11ZHwA_qsf2qUsEq_QX-16" value="" style="curved=1;startArrow=none;endArrow=block;exitX=0.49436475409836067;exitY=1;entryX=0.5089897260273972;entryY=0;rounded=0;" edge="1" parent="1" source="x11ZHwA_qsf2qUsEq_QX-11" target="x11ZHwA_qsf2qUsEq_QX-2">
          <mxGeometry relative="1" as="geometry">
            <Array as="points" />
          </mxGeometry>
        </mxCell>
        <mxCell id="x11ZHwA_qsf2qUsEq_QX-17" value="" style="curved=1;startArrow=none;endArrow=block;exitX=0.5089897260273972;exitY=1;entryX=0.49541666666666667;entryY=0;rounded=0;" edge="1" parent="1" source="x11ZHwA_qsf2qUsEq_QX-2" target="x11ZHwA_qsf2qUsEq_QX-3">
          <mxGeometry relative="1" as="geometry">
            <Array as="points" />
          </mxGeometry>
        </mxCell>
        <mxCell id="x11ZHwA_qsf2qUsEq_QX-18" value="" style="curved=1;startArrow=none;endArrow=block;exitX=0.49541666666666667;exitY=1;entryX=0.5016622340425532;entryY=0;rounded=0;" edge="1" parent="1" source="x11ZHwA_qsf2qUsEq_QX-3" target="x11ZHwA_qsf2qUsEq_QX-4">
          <mxGeometry relative="1" as="geometry">
            <Array as="points" />
          </mxGeometry>
        </mxCell>
        <mxCell id="x11ZHwA_qsf2qUsEq_QX-19" value="" style="curved=1;startArrow=none;endArrow=block;exitX=0.5016622340425532;exitY=1;entryX=0.495291095890411;entryY=0;rounded=0;" edge="1" parent="1" source="x11ZHwA_qsf2qUsEq_QX-4" target="x11ZHwA_qsf2qUsEq_QX-5">
          <mxGeometry relative="1" as="geometry">
            <Array as="points" />
          </mxGeometry>
        </mxCell>
      </root>
    </mxGraphModel>
  </diagram>
  <diagram id="qSe6pTqAv_GdHFuF6-7f" name="第 5 页">
    <mxGraphModel dx="1434" dy="738" grid="1" gridSize="10" guides="1" tooltips="1" connect="1" arrows="1" fold="1" page="1" pageScale="1" pageWidth="827" pageHeight="1169" math="0" shadow="0">
      <root>
        <mxCell id="0" />
        <mxCell id="1" parent="0" />
        <mxCell id="tDlfeBVZn5oOX9vGm6d9-1" value="tests" style="whiteSpace=wrap;strokeWidth=2;verticalAlign=top;" vertex="1" parent="1">
          <mxGeometry x="20" y="20" width="259" height="84" as="geometry" />
        </mxCell>
        <mxCell id="tDlfeBVZn5oOX9vGm6d9-2" value="unit" style="whiteSpace=wrap;strokeWidth=2;" vertex="1" parent="tDlfeBVZn5oOX9vGm6d9-1">
          <mxGeometry x="43" y="33" width="44" height="34" as="geometry" />
        </mxCell>
        <mxCell id="tDlfeBVZn5oOX9vGm6d9-3" value="integration" style="whiteSpace=wrap;strokeWidth=2;" vertex="1" parent="tDlfeBVZn5oOX9vGm6d9-1">
          <mxGeometry x="137" y="33" width="95" height="34" as="geometry" />
        </mxCell>
        <mxCell id="tDlfeBVZn5oOX9vGm6d9-4" value="example" style="whiteSpace=wrap;strokeWidth=2;verticalAlign=top;" vertex="1" parent="1">
          <mxGeometry x="329" y="20" width="237" height="84" as="geometry" />
        </mxCell>
        <mxCell id="tDlfeBVZn5oOX9vGm6d9-5" value="client" style="whiteSpace=wrap;strokeWidth=2;" vertex="1" parent="tDlfeBVZn5oOX9vGm6d9-4">
          <mxGeometry x="43" y="33" width="57" height="34" as="geometry" />
        </mxCell>
        <mxCell id="tDlfeBVZn5oOX9vGm6d9-6" value="server" style="whiteSpace=wrap;strokeWidth=2;" vertex="1" parent="tDlfeBVZn5oOX9vGm6d9-4">
          <mxGeometry x="150" y="33" width="60" height="34" as="geometry" />
        </mxCell>
        <mxCell id="tDlfeBVZn5oOX9vGm6d9-7" value="util" style="whiteSpace=wrap;strokeWidth=2;verticalAlign=top;" vertex="1" parent="1">
          <mxGeometry x="615" y="20" width="394" height="84" as="geometry" />
        </mxCell>
        <mxCell id="tDlfeBVZn5oOX9vGm6d9-8" value="concurrent" style="whiteSpace=wrap;strokeWidth=2;" vertex="1" parent="tDlfeBVZn5oOX9vGm6d9-7">
          <mxGeometry x="43" y="33" width="94" height="34" as="geometry" />
        </mxCell>
        <mxCell id="tDlfeBVZn5oOX9vGm6d9-9" value="internal" style="whiteSpace=wrap;strokeWidth=2;" vertex="1" parent="tDlfeBVZn5oOX9vGm6d9-7">
          <mxGeometry x="187" y="33" width="72" height="34" as="geometry" />
        </mxCell>
        <mxCell id="tDlfeBVZn5oOX9vGm6d9-10" value="config" style="whiteSpace=wrap;strokeWidth=2;" vertex="1" parent="tDlfeBVZn5oOX9vGm6d9-7">
          <mxGeometry x="309" y="33" width="59" height="34" as="geometry" />
        </mxCell>
        <mxCell id="tDlfeBVZn5oOX9vGm6d9-11" value="bootstrap" style="whiteSpace=wrap;strokeWidth=2;verticalAlign=top;" vertex="1" parent="1">
          <mxGeometry x="1060" y="20" width="375" height="84" as="geometry" />
        </mxCell>
        <mxCell id="tDlfeBVZn5oOX9vGm6d9-12" value="bootstrap" style="whiteSpace=wrap;strokeWidth=2;" vertex="1" parent="tDlfeBVZn5oOX9vGm6d9-11">
          <mxGeometry x="43" y="33" width="84" height="34" as="geometry" />
        </mxCell>
        <mxCell id="tDlfeBVZn5oOX9vGm6d9-13" value="option" style="whiteSpace=wrap;strokeWidth=2;" vertex="1" parent="tDlfeBVZn5oOX9vGm6d9-11">
          <mxGeometry x="177" y="33" width="61" height="34" as="geometry" />
        </mxCell>
        <mxCell id="tDlfeBVZn5oOX9vGm6d9-14" value="future" style="whiteSpace=wrap;strokeWidth=2;" vertex="1" parent="tDlfeBVZn5oOX9vGm6d9-11">
          <mxGeometry x="288" y="33" width="60" height="34" as="geometry" />
        </mxCell>
        <mxCell id="tDlfeBVZn5oOX9vGm6d9-15" value="channel" style="whiteSpace=wrap;strokeWidth=2;verticalAlign=top;" vertex="1" parent="1">
          <mxGeometry x="1484" y="20" width="247" height="84" as="geometry" />
        </mxCell>
        <mxCell id="tDlfeBVZn5oOX9vGm6d9-16" value="channel" style="whiteSpace=wrap;strokeWidth=2;" vertex="1" parent="tDlfeBVZn5oOX9vGm6d9-15">
          <mxGeometry x="43" y="33" width="71" height="34" as="geometry" />
        </mxCell>
        <mxCell id="tDlfeBVZn5oOX9vGm6d9-17" value="group" style="whiteSpace=wrap;strokeWidth=2;" vertex="1" parent="tDlfeBVZn5oOX9vGm6d9-15">
          <mxGeometry x="164" y="33" width="56" height="34" as="geometry" />
        </mxCell>
        <mxCell id="tDlfeBVZn5oOX9vGm6d9-18" value="io" style="whiteSpace=wrap;strokeWidth=2;verticalAlign=top;" vertex="1" parent="1">
          <mxGeometry x="1781" y="20" width="506" height="84" as="geometry" />
        </mxCell>
        <mxCell id="tDlfeBVZn5oOX9vGm6d9-19" value="transport" style="whiteSpace=wrap;strokeWidth=2;" vertex="1" parent="tDlfeBVZn5oOX9vGm6d9-18">
          <mxGeometry x="43" y="33" width="82" height="34" as="geometry" />
        </mxCell>
        <mxCell id="tDlfeBVZn5oOX9vGm6d9-20" value="buffer" style="whiteSpace=wrap;strokeWidth=2;" vertex="1" parent="tDlfeBVZn5oOX9vGm6d9-18">
          <mxGeometry x="175" y="33" width="60" height="34" as="geometry" />
        </mxCell>
        <mxCell id="tDlfeBVZn5oOX9vGm6d9-21" value="handler" style="whiteSpace=wrap;strokeWidth=2;" vertex="1" parent="tDlfeBVZn5oOX9vGm6d9-18">
          <mxGeometry x="285" y="33" width="70" height="34" as="geometry" />
        </mxCell>
        <mxCell id="tDlfeBVZn5oOX9vGm6d9-22" value="resolver" style="whiteSpace=wrap;strokeWidth=2;" vertex="1" parent="tDlfeBVZn5oOX9vGm6d9-18">
          <mxGeometry x="405" y="33" width="73" height="34" as="geometry" />
        </mxCell>
      </root>
    </mxGraphModel>
  </diagram>
  <diagram id="gViBPYOhErdds6sIS8a7" name="第 6 页">
    <mxGraphModel dx="1434" dy="738" grid="1" gridSize="10" guides="1" tooltips="1" connect="1" arrows="1" fold="1" page="1" pageScale="1" pageWidth="827" pageHeight="1169" math="0" shadow="0">
      <root>
        <mxCell id="0" />
        <mxCell id="1" parent="0" />
        <mxCell id="35-YvcYgkyzgA2oGzRUc-1" value="BossGroup" style="swimlane;fontStyle=1;align=center;verticalAlign=top;childLayout=stackLayout;horizontal=1;startSize=25;horizontalStack=0;resizeParent=1;resizeParentMax=0;resizeLast=0;collapsible=0;marginBottom=0;" vertex="1" parent="1">
          <mxGeometry x="20" y="274" width="93" height="38" as="geometry" />
        </mxCell>
        <mxCell id="35-YvcYgkyzgA2oGzRUc-2" style="line;strokeWidth=1;fillColor=none;align=left;verticalAlign=middle;spacingTop=-1;spacingLeft=3;spacingRight=3;rotatable=0;labelPosition=right;points=[];portConstraint=eastwest;strokeColor=inherit;" vertex="1" parent="35-YvcYgkyzgA2oGzRUc-1">
          <mxGeometry y="25" width="93" height="13" as="geometry" />
        </mxCell>
        <mxCell id="35-YvcYgkyzgA2oGzRUc-3" value="WorkerGroup" style="swimlane;fontStyle=1;align=center;verticalAlign=top;childLayout=stackLayout;horizontal=1;startSize=25;horizontalStack=0;resizeParent=1;resizeParentMax=0;resizeLast=0;collapsible=0;marginBottom=0;" vertex="1" parent="1">
          <mxGeometry x="163" y="274" width="117" height="38" as="geometry" />
        </mxCell>
        <mxCell id="35-YvcYgkyzgA2oGzRUc-4" style="line;strokeWidth=1;fillColor=none;align=left;verticalAlign=middle;spacingTop=-1;spacingLeft=3;spacingRight=3;rotatable=0;labelPosition=right;points=[];portConstraint=eastwest;strokeColor=inherit;" vertex="1" parent="35-YvcYgkyzgA2oGzRUc-3">
          <mxGeometry y="25" width="117" height="13" as="geometry" />
        </mxCell>
        <mxCell id="35-YvcYgkyzgA2oGzRUc-5" value="EventLoopGroup" style="swimlane;fontStyle=1;align=center;verticalAlign=top;childLayout=stackLayout;horizontal=1;startSize=25;horizontalStack=0;resizeParent=1;resizeParentMax=0;resizeLast=0;collapsible=0;marginBottom=0;" vertex="1" parent="1">
          <mxGeometry x="74" y="382" width="140" height="38" as="geometry" />
        </mxCell>
        <mxCell id="35-YvcYgkyzgA2oGzRUc-6" style="line;strokeWidth=1;fillColor=none;align=left;verticalAlign=middle;spacingTop=-1;spacingLeft=3;spacingRight=3;rotatable=0;labelPosition=right;points=[];portConstraint=eastwest;strokeColor=inherit;" vertex="1" parent="35-YvcYgkyzgA2oGzRUc-5">
          <mxGeometry y="25" width="140" height="13" as="geometry" />
        </mxCell>
        <mxCell id="35-YvcYgkyzgA2oGzRUc-7" value="EventLoop" style="swimlane;fontStyle=1;align=center;verticalAlign=top;childLayout=stackLayout;horizontal=1;startSize=25;horizontalStack=0;resizeParent=1;resizeParentMax=0;resizeLast=0;collapsible=0;marginBottom=0;" vertex="1" parent="1">
          <mxGeometry x="97" y="490" width="94" height="38" as="geometry" />
        </mxCell>
        <mxCell id="35-YvcYgkyzgA2oGzRUc-8" style="line;strokeWidth=1;fillColor=none;align=left;verticalAlign=middle;spacingTop=-1;spacingLeft=3;spacingRight=3;rotatable=0;labelPosition=right;points=[];portConstraint=eastwest;strokeColor=inherit;" vertex="1" parent="35-YvcYgkyzgA2oGzRUc-7">
          <mxGeometry y="25" width="94" height="13" as="geometry" />
        </mxCell>
        <mxCell id="35-YvcYgkyzgA2oGzRUc-9" value="Channel" style="swimlane;fontStyle=1;align=center;verticalAlign=top;childLayout=stackLayout;horizontal=1;startSize=27.428571428571427;horizontalStack=0;resizeParent=1;resizeParentMax=0;resizeLast=0;collapsible=0;marginBottom=0;" vertex="1" parent="1">
          <mxGeometry x="47" y="617" width="195" height="95.42857142857143" as="geometry" />
        </mxCell>
        <mxCell id="35-YvcYgkyzgA2oGzRUc-10" value="Unsafe" style="text;strokeColor=none;fillColor=none;align=left;verticalAlign=top;spacingLeft=4;spacingRight=4;overflow=hidden;rotatable=0;points=[[0,0.5],[1,0.5]];portConstraint=eastwest;" vertex="1" parent="35-YvcYgkyzgA2oGzRUc-9">
          <mxGeometry y="27.428571428571427" width="195" height="27" as="geometry" />
        </mxCell>
        <mxCell id="35-YvcYgkyzgA2oGzRUc-11" value="&quot;inbound/outbound data&quot;" style="text;strokeColor=none;fillColor=none;align=left;verticalAlign=top;spacingLeft=4;spacingRight=4;overflow=hidden;rotatable=0;points=[[0,0.5],[1,0.5]];portConstraint=eastwest;" vertex="1" parent="35-YvcYgkyzgA2oGzRUc-9">
          <mxGeometry y="54.42857142857143" width="195" height="27" as="geometry" />
        </mxCell>
        <mxCell id="35-YvcYgkyzgA2oGzRUc-12" style="line;strokeWidth=1;fillColor=none;align=left;verticalAlign=middle;spacingTop=-1;spacingLeft=3;spacingRight=3;rotatable=0;labelPosition=right;points=[];portConstraint=eastwest;strokeColor=inherit;" vertex="1" parent="35-YvcYgkyzgA2oGzRUc-9">
          <mxGeometry y="81.42857142857143" width="195" height="14" as="geometry" />
        </mxCell>
        <mxCell id="35-YvcYgkyzgA2oGzRUc-13" value="ChannelPipeline" style="swimlane;fontStyle=1;align=center;verticalAlign=top;childLayout=stackLayout;horizontal=1;startSize=25;horizontalStack=0;resizeParent=1;resizeParentMax=0;resizeLast=0;collapsible=0;marginBottom=0;" vertex="1" parent="1">
          <mxGeometry x="76" y="790" width="136" height="38" as="geometry" />
        </mxCell>
        <mxCell id="35-YvcYgkyzgA2oGzRUc-14" style="line;strokeWidth=1;fillColor=none;align=left;verticalAlign=middle;spacingTop=-1;spacingLeft=3;spacingRight=3;rotatable=0;labelPosition=right;points=[];portConstraint=eastwest;strokeColor=inherit;" vertex="1" parent="35-YvcYgkyzgA2oGzRUc-13">
          <mxGeometry y="25" width="136" height="13" as="geometry" />
        </mxCell>
        <mxCell id="35-YvcYgkyzgA2oGzRUc-15" value="ChannelHandler" style="swimlane;fontStyle=1;align=center;verticalAlign=top;childLayout=stackLayout;horizontal=1;startSize=25;horizontalStack=0;resizeParent=1;resizeParentMax=0;resizeLast=0;collapsible=0;marginBottom=0;" vertex="1" parent="1">
          <mxGeometry x="76" y="917" width="136" height="38" as="geometry" />
        </mxCell>
        <mxCell id="35-YvcYgkyzgA2oGzRUc-16" style="line;strokeWidth=1;fillColor=none;align=left;verticalAlign=middle;spacingTop=-1;spacingLeft=3;spacingRight=3;rotatable=0;labelPosition=right;points=[];portConstraint=eastwest;strokeColor=inherit;" vertex="1" parent="35-YvcYgkyzgA2oGzRUc-15">
          <mxGeometry y="25" width="136" height="13" as="geometry" />
        </mxCell>
        <mxCell id="35-YvcYgkyzgA2oGzRUc-17" value="ChannelInitializer" style="swimlane;fontStyle=1;align=center;verticalAlign=top;childLayout=stackLayout;horizontal=1;startSize=25;horizontalStack=0;resizeParent=1;resizeParentMax=0;resizeLast=0;collapsible=0;marginBottom=0;" vertex="1" parent="1">
          <mxGeometry x="70" y="1025" width="149" height="38" as="geometry" />
        </mxCell>
        <mxCell id="35-YvcYgkyzgA2oGzRUc-18" style="line;strokeWidth=1;fillColor=none;align=left;verticalAlign=middle;spacingTop=-1;spacingLeft=3;spacingRight=3;rotatable=0;labelPosition=right;points=[];portConstraint=eastwest;strokeColor=inherit;" vertex="1" parent="35-YvcYgkyzgA2oGzRUc-17">
          <mxGeometry y="25" width="149" height="13" as="geometry" />
        </mxCell>
        <mxCell id="35-YvcYgkyzgA2oGzRUc-19" value="ServerBootstrap" style="swimlane;fontStyle=1;align=center;verticalAlign=top;childLayout=stackLayout;horizontal=1;startSize=25;horizontalStack=0;resizeParent=1;resizeParentMax=0;resizeLast=0;collapsible=0;marginBottom=0;" vertex="1" parent="1">
          <mxGeometry x="76" y="20" width="136" height="38" as="geometry" />
        </mxCell>
        <mxCell id="35-YvcYgkyzgA2oGzRUc-20" style="line;strokeWidth=1;fillColor=none;align=left;verticalAlign=middle;spacingTop=-1;spacingLeft=3;spacingRight=3;rotatable=0;labelPosition=right;points=[];portConstraint=eastwest;strokeColor=inherit;" vertex="1" parent="35-YvcYgkyzgA2oGzRUc-19">
          <mxGeometry y="25" width="136" height="13" as="geometry" />
        </mxCell>
        <mxCell id="35-YvcYgkyzgA2oGzRUc-21" value="Bootstrap" style="swimlane;fontStyle=1;align=center;verticalAlign=top;childLayout=stackLayout;horizontal=1;startSize=25;horizontalStack=0;resizeParent=1;resizeParentMax=0;resizeLast=0;collapsible=0;marginBottom=0;" vertex="1" parent="1">
          <mxGeometry x="101" y="147" width="87" height="38" as="geometry" />
        </mxCell>
        <mxCell id="35-YvcYgkyzgA2oGzRUc-22" style="line;strokeWidth=1;fillColor=none;align=left;verticalAlign=middle;spacingTop=-1;spacingLeft=3;spacingRight=3;rotatable=0;labelPosition=right;points=[];portConstraint=eastwest;strokeColor=inherit;" vertex="1" parent="35-YvcYgkyzgA2oGzRUc-21">
          <mxGeometry y="25" width="87" height="13" as="geometry" />
        </mxCell>
        <mxCell id="35-YvcYgkyzgA2oGzRUc-23" value="ByteBuf" style="swimlane;fontStyle=1;align=center;verticalAlign=top;childLayout=stackLayout;horizontal=1;startSize=25;horizontalStack=0;resizeParent=1;resizeParentMax=0;resizeLast=0;collapsible=0;marginBottom=0;" vertex="1" parent="1">
          <mxGeometry x="272" y="20" width="75" height="38" as="geometry" />
        </mxCell>
        <mxCell id="35-YvcYgkyzgA2oGzRUc-24" style="line;strokeWidth=1;fillColor=none;align=left;verticalAlign=middle;spacingTop=-1;spacingLeft=3;spacingRight=3;rotatable=0;labelPosition=right;points=[];portConstraint=eastwest;strokeColor=inherit;" vertex="1" parent="35-YvcYgkyzgA2oGzRUc-23">
          <mxGeometry y="25" width="75" height="13" as="geometry" />
        </mxCell>
        <mxCell id="35-YvcYgkyzgA2oGzRUc-25" value="ByteBufAllocator" style="swimlane;fontStyle=1;align=center;verticalAlign=top;childLayout=stackLayout;horizontal=1;startSize=25;horizontalStack=0;resizeParent=1;resizeParentMax=0;resizeLast=0;collapsible=0;marginBottom=0;" vertex="1" parent="1">
          <mxGeometry x="238" y="147" width="142" height="38" as="geometry" />
        </mxCell>
        <mxCell id="35-YvcYgkyzgA2oGzRUc-26" style="line;strokeWidth=1;fillColor=none;align=left;verticalAlign=middle;spacingTop=-1;spacingLeft=3;spacingRight=3;rotatable=0;labelPosition=right;points=[];portConstraint=eastwest;strokeColor=inherit;" vertex="1" parent="35-YvcYgkyzgA2oGzRUc-25">
          <mxGeometry y="25" width="142" height="13" as="geometry" />
        </mxCell>
        <mxCell id="35-YvcYgkyzgA2oGzRUc-27" value="" style="curved=1;startArrow=none;endArrow=block;endSize=16;endFill=0;exitX=0.5023941532258065;exitY=1;entryX=0.20436017071759258;entryY=0;rounded=0;" edge="1" parent="1" source="35-YvcYgkyzgA2oGzRUc-1" target="35-YvcYgkyzgA2oGzRUc-5">
          <mxGeometry relative="1" as="geometry">
            <Array as="points">
              <mxPoint x="67" y="357" />
            </Array>
          </mxGeometry>
        </mxCell>
        <mxCell id="35-YvcYgkyzgA2oGzRUc-28" value="" style="curved=1;startArrow=none;endArrow=block;endSize=16;endFill=0;exitX=0.5022035256410257;exitY=1;entryX=0.7990717489252646;entryY=0;rounded=0;" edge="1" parent="1" source="35-YvcYgkyzgA2oGzRUc-3" target="35-YvcYgkyzgA2oGzRUc-5">
          <mxGeometry relative="1" as="geometry">
            <Array as="points">
              <mxPoint x="222" y="357" />
            </Array>
          </mxGeometry>
        </mxCell>
        <mxCell id="35-YvcYgkyzgA2oGzRUc-29" value="" style="curved=1;startArrow=diamondThin;startSize=14;startFill=0;endArrow=none;exitX=0.5017159598214286;exitY=1;entryX=0.5025556848404256;entryY=0;rounded=0;" edge="1" parent="1" source="35-YvcYgkyzgA2oGzRUc-5" target="35-YvcYgkyzgA2oGzRUc-7">
          <mxGeometry relative="1" as="geometry">
            <Array as="points" />
          </mxGeometry>
        </mxCell>
        <mxCell id="35-YvcYgkyzgA2oGzRUc-30" value="1" style="edgeLabel;resizable=0;labelBackgroundColor=none;fontSize=12;align=right;verticalAlign=top;" vertex="1" parent="35-YvcYgkyzgA2oGzRUc-29">
          <mxGeometry x="-1" relative="1" as="geometry" />
        </mxCell>
        <mxCell id="35-YvcYgkyzgA2oGzRUc-31" value="*" style="edgeLabel;resizable=0;labelBackgroundColor=none;fontSize=12;align=left;verticalAlign=bottom;" vertex="1" parent="35-YvcYgkyzgA2oGzRUc-29">
          <mxGeometry x="1" relative="1" as="geometry" />
        </mxCell>
        <mxCell id="35-YvcYgkyzgA2oGzRUc-32" value="&quot;1&quot;" style="curved=1;startArrow=diamondThin;startSize=14;startFill=0;endArrow=none;exitX=0.5025556848404256;exitY=1;entryX=0.4986678685897436;entryY=0;rounded=0;" edge="1" parent="1" source="35-YvcYgkyzgA2oGzRUc-7" target="35-YvcYgkyzgA2oGzRUc-9">
          <mxGeometry relative="1" as="geometry">
            <Array as="points" />
          </mxGeometry>
        </mxCell>
        <mxCell id="35-YvcYgkyzgA2oGzRUc-33" value="&quot;1&quot;" style="curved=1;startArrow=diamondThin;startSize=14;startFill=0;endArrow=none;exitX=0.4986678685897436;exitY=1;entryX=0.5017664292279411;entryY=0;rounded=0;" edge="1" parent="1" source="35-YvcYgkyzgA2oGzRUc-9" target="35-YvcYgkyzgA2oGzRUc-13">
          <mxGeometry relative="1" as="geometry">
            <Array as="points" />
          </mxGeometry>
        </mxCell>
        <mxCell id="35-YvcYgkyzgA2oGzRUc-34" value="&quot;1&quot;" style="curved=1;startArrow=diamondThin;startSize=14;startFill=0;endArrow=none;exitX=0.3935091160910722;exitY=1;entryX=0.3935091160910722;entryY=0;rounded=0;" edge="1" parent="1" source="35-YvcYgkyzgA2oGzRUc-13" target="35-YvcYgkyzgA2oGzRUc-15">
          <mxGeometry relative="1" as="geometry">
            <Array as="points">
              <mxPoint x="112" y="883" />
            </Array>
          </mxGeometry>
        </mxCell>
        <mxCell id="35-YvcYgkyzgA2oGzRUc-35" value="*" style="edgeLabel;resizable=0;labelBackgroundColor=none;fontSize=12;align=left;verticalAlign=bottom;" vertex="1" parent="35-YvcYgkyzgA2oGzRUc-34">
          <mxGeometry x="1" relative="1" as="geometry" />
        </mxCell>
        <mxCell id="35-YvcYgkyzgA2oGzRUc-36" value="" style="curved=1;startArrow=block;startSize=16;startFill=0;endArrow=none;exitX=0.5017664292279411;exitY=1;entryX=0.49825660654362414;entryY=0;rounded=0;" edge="1" parent="1" source="35-YvcYgkyzgA2oGzRUc-15" target="35-YvcYgkyzgA2oGzRUc-17">
          <mxGeometry relative="1" as="geometry">
            <Array as="points" />
          </mxGeometry>
        </mxCell>
        <mxCell id="35-YvcYgkyzgA2oGzRUc-37" value="&quot;is a&quot;" style="curved=1;startArrow=diamondThin;startSize=14;startFill=0;endArrow=none;exitX=0.5017664292279411;exitY=1;entryX=0.49701418821839083;entryY=0;rounded=0;" edge="1" parent="1" source="35-YvcYgkyzgA2oGzRUc-19" target="35-YvcYgkyzgA2oGzRUc-21">
          <mxGeometry relative="1" as="geometry">
            <Array as="points" />
          </mxGeometry>
        </mxCell>
        <mxCell id="35-YvcYgkyzgA2oGzRUc-38" value="&quot;uses 1&quot;" style="curved=1;startArrow=diamondThin;startSize=14;startFill=0;endArrow=none;exitX=0.09009776761471638;exitY=1;entryX=0.5023941532258065;entryY=0;rounded=0;" edge="1" parent="1" source="35-YvcYgkyzgA2oGzRUc-21" target="35-YvcYgkyzgA2oGzRUc-1">
          <mxGeometry relative="1" as="geometry">
            <Array as="points">
              <mxPoint x="67" y="240" />
            </Array>
          </mxGeometry>
        </mxCell>
        <mxCell id="35-YvcYgkyzgA2oGzRUc-39" value="&quot;uses 1&quot;" style="curved=1;startArrow=diamondThin;startSize=14;startFill=0;endArrow=none;exitX=0.9039306088220652;exitY=1;entryX=0.5022035256410257;entryY=0;rounded=0;" edge="1" parent="1" source="35-YvcYgkyzgA2oGzRUc-21" target="35-YvcYgkyzgA2oGzRUc-3">
          <mxGeometry relative="1" as="geometry">
            <Array as="points">
              <mxPoint x="222" y="240" />
            </Array>
          </mxGeometry>
        </mxCell>
        <mxCell id="35-YvcYgkyzgA2oGzRUc-40" value="&quot;contains&quot;" style="curved=1;dashed=1;startArrow=none;endArrow=open;endSize=12;exitX=0.61002374236481;exitY=1;entryX=0.61002374236481;entryY=0;rounded=0;" edge="1" parent="1" source="35-YvcYgkyzgA2oGzRUc-13" target="35-YvcYgkyzgA2oGzRUc-15">
          <mxGeometry relative="1" as="geometry">
            <Array as="points">
              <mxPoint x="176" y="883" />
            </Array>
          </mxGeometry>
        </mxCell>
        <mxCell id="35-YvcYgkyzgA2oGzRUc-41" value="" style="curved=1;startArrow=block;startSize=16;startFill=0;endArrow=none;exitX=0.4918489583333333;exitY=1;entryX=0.4992159991197183;entryY=0;rounded=0;" edge="1" parent="1" source="35-YvcYgkyzgA2oGzRUc-23" target="35-YvcYgkyzgA2oGzRUc-25">
          <mxGeometry relative="1" as="geometry">
            <Array as="points" />
          </mxGeometry>
        </mxCell>
      </root>
    </mxGraphModel>
  </diagram>
  <diagram id="Zj_YbO7D2nIdtoCtRKIJ" name="第 7 页">
    <mxGraphModel dx="1687" dy="2077" grid="1" gridSize="10" guides="1" tooltips="1" connect="1" arrows="1" fold="1" page="1" pageScale="1" pageWidth="827" pageHeight="1169" math="0" shadow="0">
      <root>
        <mxCell id="0" />
        <mxCell id="1" parent="0" />
        <mxCell id="LfspW6_ErGmu0BM63hvE-22" value="" style="rounded=0;whiteSpace=wrap;html=1;" vertex="1" parent="1">
          <mxGeometry x="120" y="220" width="1680" height="60" as="geometry" />
        </mxCell>
        <mxCell id="LfspW6_ErGmu0BM63hvE-23" value="bool" style="rounded=0;whiteSpace=wrap;html=1;" vertex="1" parent="1">
          <mxGeometry x="120" y="340" width="70" height="60" as="geometry" />
        </mxCell>
        <mxCell id="LfspW6_ErGmu0BM63hvE-25" value="int16(2byte)" style="rounded=0;whiteSpace=wrap;html=1;" vertex="1" parent="1">
          <mxGeometry x="260" y="340" width="140" height="60" as="geometry" />
        </mxCell>
        <mxCell id="LfspW6_ErGmu0BM63hvE-26" value="bool" style="rounded=0;whiteSpace=wrap;html=1;" vertex="1" parent="1">
          <mxGeometry x="120" y="400" width="70" height="60" as="geometry" />
        </mxCell>
        <mxCell id="LfspW6_ErGmu0BM63hvE-27" value="bool" style="rounded=0;whiteSpace=wrap;html=1;" vertex="1" parent="1">
          <mxGeometry x="120" y="460" width="70" height="60" as="geometry" />
        </mxCell>
        <mxCell id="LfspW6_ErGmu0BM63hvE-28" value="int32(4byte)" style="rounded=0;whiteSpace=wrap;html=1;" vertex="1" parent="1">
          <mxGeometry x="400" y="400" width="280" height="60" as="geometry" />
        </mxCell>
        <mxCell id="LfspW6_ErGmu0BM63hvE-29" value="int64(8byte)" style="rounded=0;whiteSpace=wrap;html=1;" vertex="1" parent="1">
          <mxGeometry x="680" y="460" width="560" height="60" as="geometry" />
        </mxCell>
        <mxCell id="LfspW6_ErGmu0BM63hvE-30" value="bool" style="rounded=0;whiteSpace=wrap;html=1;" vertex="1" parent="1">
          <mxGeometry x="120" y="460" width="70" height="60" as="geometry" />
        </mxCell>
        <mxCell id="LfspW6_ErGmu0BM63hvE-31" value="bool" style="rounded=0;whiteSpace=wrap;html=1;" vertex="1" parent="1">
          <mxGeometry x="120" y="520" width="70" height="60" as="geometry" />
        </mxCell>
        <mxCell id="LfspW6_ErGmu0BM63hvE-32" value="fixAray" style="rounded=0;whiteSpace=wrap;html=1;" vertex="1" parent="1">
          <mxGeometry x="680" y="580" width="200" height="60" as="geometry" />
        </mxCell>
        <mxCell id="LfspW6_ErGmu0BM63hvE-33" value="string" style="rounded=0;whiteSpace=wrap;html=1;" vertex="1" parent="1">
          <mxGeometry x="680" y="520" width="200" height="60" as="geometry" />
        </mxCell>
        <mxCell id="LfspW6_ErGmu0BM63hvE-34" value="1" style="rounded=0;whiteSpace=wrap;html=1;fillColor=#f5f5f5;strokeColor=#666666;gradientColor=#b3b3b3;" vertex="1" parent="1">
          <mxGeometry x="190" y="400" width="70" height="60" as="geometry" />
        </mxCell>
        <mxCell id="LfspW6_ErGmu0BM63hvE-35" value="1" style="rounded=0;whiteSpace=wrap;html=1;fillColor=#f5f5f5;strokeColor=#666666;gradientColor=#b3b3b3;" vertex="1" parent="1">
          <mxGeometry x="260" y="400" width="70" height="60" as="geometry" />
        </mxCell>
        <mxCell id="LfspW6_ErGmu0BM63hvE-36" value="1" style="rounded=0;whiteSpace=wrap;html=1;fillColor=#f5f5f5;strokeColor=#666666;gradientColor=#b3b3b3;" vertex="1" parent="1">
          <mxGeometry x="330" y="400" width="70" height="60" as="geometry" />
        </mxCell>
        <mxCell id="LfspW6_ErGmu0BM63hvE-39" value="1" style="rounded=0;whiteSpace=wrap;html=1;fillColor=#f5f5f5;strokeColor=#666666;gradientColor=#b3b3b3;" vertex="1" parent="1">
          <mxGeometry x="190" y="340" width="70" height="60" as="geometry" />
        </mxCell>
        <mxCell id="LfspW6_ErGmu0BM63hvE-40" value="1" style="rounded=0;whiteSpace=wrap;html=1;fillColor=#f5f5f5;strokeColor=#666666;gradientColor=#b3b3b3;" vertex="1" parent="1">
          <mxGeometry x="190" y="460" width="70" height="60" as="geometry" />
        </mxCell>
        <mxCell id="LfspW6_ErGmu0BM63hvE-41" value="1" style="rounded=0;whiteSpace=wrap;html=1;fillColor=#f5f5f5;strokeColor=#666666;gradientColor=#b3b3b3;" vertex="1" parent="1">
          <mxGeometry x="260" y="460" width="70" height="60" as="geometry" />
        </mxCell>
        <mxCell id="LfspW6_ErGmu0BM63hvE-42" value="1" style="rounded=0;whiteSpace=wrap;html=1;fillColor=#f5f5f5;strokeColor=#666666;gradientColor=#b3b3b3;" vertex="1" parent="1">
          <mxGeometry x="330" y="460" width="70" height="60" as="geometry" />
        </mxCell>
        <mxCell id="LfspW6_ErGmu0BM63hvE-43" value="1" style="rounded=0;whiteSpace=wrap;html=1;fillColor=#f5f5f5;strokeColor=#666666;gradientColor=#b3b3b3;" vertex="1" parent="1">
          <mxGeometry x="400" y="460" width="70" height="60" as="geometry" />
        </mxCell>
        <mxCell id="LfspW6_ErGmu0BM63hvE-44" value="1" style="rounded=0;whiteSpace=wrap;html=1;fillColor=#f5f5f5;strokeColor=#666666;gradientColor=#b3b3b3;" vertex="1" parent="1">
          <mxGeometry x="470" y="460" width="70" height="60" as="geometry" />
        </mxCell>
        <mxCell id="LfspW6_ErGmu0BM63hvE-45" value="1" style="rounded=0;whiteSpace=wrap;html=1;fillColor=#f5f5f5;strokeColor=#666666;gradientColor=#b3b3b3;" vertex="1" parent="1">
          <mxGeometry x="540" y="460" width="70" height="60" as="geometry" />
        </mxCell>
        <mxCell id="LfspW6_ErGmu0BM63hvE-49" value="1" style="rounded=0;whiteSpace=wrap;html=1;fillColor=#f5f5f5;strokeColor=#666666;gradientColor=#b3b3b3;" vertex="1" parent="1">
          <mxGeometry x="610" y="460" width="70" height="60" as="geometry" />
        </mxCell>
        <mxCell id="LfspW6_ErGmu0BM63hvE-50" value="" style="rounded=0;whiteSpace=wrap;html=1;" vertex="1" parent="1">
          <mxGeometry x="180" y="-200" width="630" height="60" as="geometry" />
        </mxCell>
        <mxCell id="LfspW6_ErGmu0BM63hvE-51" value="int8(1byte&lt;span style=&quot;background-color: initial;&quot;&gt;)&lt;/span&gt;" style="rounded=0;whiteSpace=wrap;html=1;" vertex="1" parent="1">
          <mxGeometry x="190" y="280" width="70" height="60" as="geometry" />
        </mxCell>
        <mxCell id="LfspW6_ErGmu0BM63hvE-52" value="bool" style="rounded=0;whiteSpace=wrap;html=1;" vertex="1" parent="1">
          <mxGeometry x="120" y="280" width="70" height="60" as="geometry" />
        </mxCell>
        <mxCell id="LfspW6_ErGmu0BM63hvE-53" value="bool" style="rounded=0;whiteSpace=wrap;html=1;" vertex="1" parent="1">
          <mxGeometry x="120" y="580" width="70" height="60" as="geometry" />
        </mxCell>
        <mxCell id="LfspW6_ErGmu0BM63hvE-54" value="1" style="rounded=0;whiteSpace=wrap;html=1;fillColor=#f5f5f5;strokeColor=#666666;gradientColor=#b3b3b3;" vertex="1" parent="1">
          <mxGeometry x="190" y="520" width="70" height="60" as="geometry" />
        </mxCell>
        <mxCell id="LfspW6_ErGmu0BM63hvE-55" value="1" style="rounded=0;whiteSpace=wrap;html=1;fillColor=#f5f5f5;strokeColor=#666666;gradientColor=#b3b3b3;" vertex="1" parent="1">
          <mxGeometry x="260" y="520" width="70" height="60" as="geometry" />
        </mxCell>
        <mxCell id="LfspW6_ErGmu0BM63hvE-56" value="1" style="rounded=0;whiteSpace=wrap;html=1;fillColor=#f5f5f5;strokeColor=#666666;gradientColor=#b3b3b3;" vertex="1" parent="1">
          <mxGeometry x="330" y="520" width="70" height="60" as="geometry" />
        </mxCell>
        <mxCell id="LfspW6_ErGmu0BM63hvE-57" value="1" style="rounded=0;whiteSpace=wrap;html=1;fillColor=#f5f5f5;strokeColor=#666666;gradientColor=#b3b3b3;" vertex="1" parent="1">
          <mxGeometry x="400" y="520" width="70" height="60" as="geometry" />
        </mxCell>
        <mxCell id="LfspW6_ErGmu0BM63hvE-58" value="1" style="rounded=0;whiteSpace=wrap;html=1;fillColor=#f5f5f5;strokeColor=#666666;gradientColor=#b3b3b3;" vertex="1" parent="1">
          <mxGeometry x="470" y="520" width="70" height="60" as="geometry" />
        </mxCell>
        <mxCell id="LfspW6_ErGmu0BM63hvE-59" value="1" style="rounded=0;whiteSpace=wrap;html=1;fillColor=#f5f5f5;strokeColor=#666666;gradientColor=#b3b3b3;" vertex="1" parent="1">
          <mxGeometry x="540" y="520" width="70" height="60" as="geometry" />
        </mxCell>
        <mxCell id="LfspW6_ErGmu0BM63hvE-60" value="1" style="rounded=0;whiteSpace=wrap;html=1;fillColor=#f5f5f5;strokeColor=#666666;gradientColor=#b3b3b3;" vertex="1" parent="1">
          <mxGeometry x="610" y="520" width="70" height="60" as="geometry" />
        </mxCell>
        <mxCell id="LfspW6_ErGmu0BM63hvE-61" value="1" style="rounded=0;whiteSpace=wrap;html=1;fillColor=#f5f5f5;strokeColor=#666666;gradientColor=#b3b3b3;" vertex="1" parent="1">
          <mxGeometry x="190" y="580" width="70" height="60" as="geometry" />
        </mxCell>
        <mxCell id="LfspW6_ErGmu0BM63hvE-62" value="1" style="rounded=0;whiteSpace=wrap;html=1;fillColor=#f5f5f5;strokeColor=#666666;gradientColor=#b3b3b3;" vertex="1" parent="1">
          <mxGeometry x="260" y="580" width="70" height="60" as="geometry" />
        </mxCell>
        <mxCell id="LfspW6_ErGmu0BM63hvE-63" value="1" style="rounded=0;whiteSpace=wrap;html=1;fillColor=#f5f5f5;strokeColor=#666666;gradientColor=#b3b3b3;" vertex="1" parent="1">
          <mxGeometry x="330" y="580" width="70" height="60" as="geometry" />
        </mxCell>
        <mxCell id="LfspW6_ErGmu0BM63hvE-64" value="1" style="rounded=0;whiteSpace=wrap;html=1;fillColor=#f5f5f5;strokeColor=#666666;gradientColor=#b3b3b3;" vertex="1" parent="1">
          <mxGeometry x="400" y="580" width="70" height="60" as="geometry" />
        </mxCell>
        <mxCell id="LfspW6_ErGmu0BM63hvE-65" value="1" style="rounded=0;whiteSpace=wrap;html=1;fillColor=#f5f5f5;strokeColor=#666666;gradientColor=#b3b3b3;" vertex="1" parent="1">
          <mxGeometry x="470" y="580" width="70" height="60" as="geometry" />
        </mxCell>
        <mxCell id="LfspW6_ErGmu0BM63hvE-66" value="1" style="rounded=0;whiteSpace=wrap;html=1;fillColor=#f5f5f5;strokeColor=#666666;gradientColor=#b3b3b3;" vertex="1" parent="1">
          <mxGeometry x="540" y="580" width="70" height="60" as="geometry" />
        </mxCell>
        <mxCell id="LfspW6_ErGmu0BM63hvE-67" value="1" style="rounded=0;whiteSpace=wrap;html=1;fillColor=#f5f5f5;strokeColor=#666666;gradientColor=#b3b3b3;" vertex="1" parent="1">
          <mxGeometry x="610" y="580" width="70" height="60" as="geometry" />
        </mxCell>
        <mxCell id="LfspW6_ErGmu0BM63hvE-68" value="decimal*(16byte)" style="rounded=0;whiteSpace=wrap;html=1;" vertex="1" parent="1">
          <mxGeometry x="1241" y="640" width="569" height="60" as="geometry" />
        </mxCell>
        <mxCell id="LfspW6_ErGmu0BM63hvE-69" value="bool" style="rounded=0;whiteSpace=wrap;html=1;" vertex="1" parent="1">
          <mxGeometry x="120" y="640" width="70" height="60" as="geometry" />
        </mxCell>
        <mxCell id="LfspW6_ErGmu0BM63hvE-70" value="1" style="rounded=0;whiteSpace=wrap;html=1;fillColor=#f5f5f5;strokeColor=#666666;gradientColor=#b3b3b3;" vertex="1" parent="1">
          <mxGeometry x="190" y="640" width="70" height="60" as="geometry" />
        </mxCell>
        <mxCell id="LfspW6_ErGmu0BM63hvE-71" value="1" style="rounded=0;whiteSpace=wrap;html=1;fillColor=#f5f5f5;strokeColor=#666666;gradientColor=#b3b3b3;" vertex="1" parent="1">
          <mxGeometry x="260" y="640" width="70" height="60" as="geometry" />
        </mxCell>
        <mxCell id="LfspW6_ErGmu0BM63hvE-72" value="1" style="rounded=0;whiteSpace=wrap;html=1;fillColor=#f5f5f5;strokeColor=#666666;gradientColor=#b3b3b3;" vertex="1" parent="1">
          <mxGeometry x="330" y="640" width="70" height="60" as="geometry" />
        </mxCell>
        <mxCell id="LfspW6_ErGmu0BM63hvE-73" value="1" style="rounded=0;whiteSpace=wrap;html=1;fillColor=#f5f5f5;strokeColor=#666666;gradientColor=#b3b3b3;" vertex="1" parent="1">
          <mxGeometry x="400" y="640" width="70" height="60" as="geometry" />
        </mxCell>
        <mxCell id="LfspW6_ErGmu0BM63hvE-74" value="1" style="rounded=0;whiteSpace=wrap;html=1;fillColor=#f5f5f5;strokeColor=#666666;gradientColor=#b3b3b3;" vertex="1" parent="1">
          <mxGeometry x="470" y="640" width="70" height="60" as="geometry" />
        </mxCell>
        <mxCell id="LfspW6_ErGmu0BM63hvE-75" value="1" style="rounded=0;whiteSpace=wrap;html=1;fillColor=#f5f5f5;strokeColor=#666666;gradientColor=#b3b3b3;" vertex="1" parent="1">
          <mxGeometry x="540" y="640" width="70" height="60" as="geometry" />
        </mxCell>
        <mxCell id="LfspW6_ErGmu0BM63hvE-76" value="1" style="rounded=0;whiteSpace=wrap;html=1;fillColor=#f5f5f5;strokeColor=#666666;gradientColor=#b3b3b3;" vertex="1" parent="1">
          <mxGeometry x="610" y="640" width="70" height="60" as="geometry" />
        </mxCell>
        <mxCell id="LfspW6_ErGmu0BM63hvE-77" value="1" style="rounded=0;whiteSpace=wrap;html=1;fillColor=#f5f5f5;strokeColor=#666666;gradientColor=#b3b3b3;" vertex="1" parent="1">
          <mxGeometry x="680" y="640" width="70" height="60" as="geometry" />
        </mxCell>
        <mxCell id="LfspW6_ErGmu0BM63hvE-78" value="1" style="rounded=0;whiteSpace=wrap;html=1;fillColor=#f5f5f5;strokeColor=#666666;gradientColor=#b3b3b3;" vertex="1" parent="1">
          <mxGeometry x="750" y="640" width="70" height="60" as="geometry" />
        </mxCell>
        <mxCell id="LfspW6_ErGmu0BM63hvE-79" value="1" style="rounded=0;whiteSpace=wrap;html=1;fillColor=#f5f5f5;strokeColor=#666666;gradientColor=#b3b3b3;" vertex="1" parent="1">
          <mxGeometry x="820" y="640" width="70" height="60" as="geometry" />
        </mxCell>
        <mxCell id="LfspW6_ErGmu0BM63hvE-80" value="1" style="rounded=0;whiteSpace=wrap;html=1;fillColor=#f5f5f5;strokeColor=#666666;gradientColor=#b3b3b3;" vertex="1" parent="1">
          <mxGeometry x="890" y="640" width="70" height="60" as="geometry" />
        </mxCell>
        <mxCell id="LfspW6_ErGmu0BM63hvE-81" value="1" style="rounded=0;whiteSpace=wrap;html=1;fillColor=#f5f5f5;strokeColor=#666666;gradientColor=#b3b3b3;" vertex="1" parent="1">
          <mxGeometry x="960" y="640" width="70" height="60" as="geometry" />
        </mxCell>
        <mxCell id="LfspW6_ErGmu0BM63hvE-82" value="1" style="rounded=0;whiteSpace=wrap;html=1;fillColor=#f5f5f5;strokeColor=#666666;gradientColor=#b3b3b3;" vertex="1" parent="1">
          <mxGeometry x="1030" y="640" width="70" height="60" as="geometry" />
        </mxCell>
        <mxCell id="LfspW6_ErGmu0BM63hvE-83" value="1" style="rounded=0;whiteSpace=wrap;html=1;fillColor=#f5f5f5;strokeColor=#666666;gradientColor=#b3b3b3;" vertex="1" parent="1">
          <mxGeometry x="1100" y="640" width="70" height="60" as="geometry" />
        </mxCell>
        <mxCell id="LfspW6_ErGmu0BM63hvE-84" value="1" style="rounded=0;whiteSpace=wrap;html=1;fillColor=#f5f5f5;strokeColor=#666666;gradientColor=#b3b3b3;" vertex="1" parent="1">
          <mxGeometry x="1170" y="640" width="70" height="60" as="geometry" />
        </mxCell>
        <mxCell id="LfspW6_ErGmu0BM63hvE-85" value="1" style="rounded=0;whiteSpace=wrap;html=1;fillColor=#f5f5f5;strokeColor=#666666;gradientColor=#b3b3b3;" vertex="1" parent="1">
          <mxGeometry x="160" y="750" width="70" height="60" as="geometry" />
        </mxCell>
        <mxCell id="LfspW6_ErGmu0BM63hvE-86" value="" style="rounded=0;whiteSpace=wrap;html=1;" vertex="1" parent="1">
          <mxGeometry x="280" y="750" width="70" height="60" as="geometry" />
        </mxCell>
        <mxCell id="LfspW6_ErGmu0BM63hvE-87" value="padding填充" style="text;html=1;align=center;verticalAlign=middle;whiteSpace=wrap;rounded=0;" vertex="1" parent="1">
          <mxGeometry x="150" y="810" width="80" height="30" as="geometry" />
        </mxCell>
        <mxCell id="LfspW6_ErGmu0BM63hvE-88" value="数据类型占用空间" style="text;html=1;align=center;verticalAlign=middle;whiteSpace=wrap;rounded=0;" vertex="1" parent="1">
          <mxGeometry x="275" y="810" width="80" height="30" as="geometry" />
        </mxCell>
      </root>
    </mxGraphModel>
  </diagram>
</mxfile>
